<svg width="2238" height="2216" viewBox="0 0 2238 2216" fill="none" xmlns="http://www.w3.org/2000/svg">
<g opacity="0.6">
<g style="mix-blend-mode:hard-light" filter="url(#filter0_f_298_2041)">
<path d="M377.835 1498.99C410.69 1662.96 570.115 1785.69 801.857 1851.34C1033.49 1916.97 1337.07 1925.47 1657.71 1861.26C1657.79 1861.24 1657.87 1861.23 1657.95 1861.21L1658.34 1863.17C1337.36 1927.49 1033.36 1919.01 801.312 1853.27C569.32 1787.54 408.953 1664.47 375.874 1499.39C364.413 1442.18 368.997 1383.75 387.735 1325.57C347.008 1307.95 311.081 1288.58 280.526 1267.52C209.118 1218.3 166.948 1159.78 161.607 1092.9C156.27 1026.08 184.114 956.869 241.152 889.937C298.19 823.005 384.475 758.279 496.197 700.372C719.646 584.556 1045.01 495.93 1442.18 471.529L1442.3 473.526C1442.18 473.533 1442.07 473.54 1441.95 473.547C1045.14 497.966 720.196 586.523 497.118 702.148C385.544 759.978 299.493 824.559 242.674 891.235C185.854 957.911 158.319 1026.61 163.6 1092.74C168.876 1158.8 210.535 1216.84 281.661 1265.87C312.052 1286.82 347.805 1306.11 388.356 1323.66C424.074 1214.56 509.489 1106.39 632.132 1008.91C820.939 858.845 1098.21 733.899 1419.18 669.587L1419.58 671.548C1098.85 735.811 821.888 860.646 633.376 1010.48C510.798 1107.91 425.713 1215.82 390.204 1324.45C444.135 1347.64 506.479 1367.77 575.931 1384.65C821.23 1444.3 1154.94 1463.47 1519.06 1434.39L1519.22 1436.39C1154.96 1465.48 821.025 1446.31 575.458 1386.6C506.011 1369.71 443.612 1349.58 389.584 1326.36C370.988 1384.21 366.464 1442.24 377.835 1498.99Z" fill="url(#paint0_linear_298_2041)" fill-opacity="0.5"/>
<path d="M801.857 1851.34C570.115 1785.69 410.69 1662.96 377.835 1498.99C366.464 1442.24 370.988 1384.21 389.584 1326.36C443.612 1349.58 506.011 1369.71 575.458 1386.6C821.025 1446.31 1154.96 1465.48 1519.22 1436.39L1657.71 1861.26C1337.07 1925.47 1033.49 1916.97 801.857 1851.34Z" fill="url(#paint1_linear_298_2041)" fill-opacity="0.5"/>
<path d="M497.118 702.148C720.196 586.523 1045.14 497.966 1441.95 473.547L1419.58 671.548L1419.18 669.587C1098.21 733.899 820.939 858.845 632.132 1008.91C509.489 1106.39 424.074 1214.56 388.356 1323.66C347.805 1306.11 312.052 1286.82 281.661 1265.87C210.535 1216.84 168.876 1158.8 163.6 1092.74C158.319 1026.61 185.854 957.911 242.674 891.235C299.493 824.559 385.544 759.978 497.118 702.148Z" fill="url(#paint2_linear_298_2041)" fill-opacity="0.5"/>
</g>
<g style="mix-blend-mode:soft-light" opacity="0.6">
<path d="M377.835 1498.99C410.69 1662.96 570.115 1785.69 801.857 1851.34C1033.49 1916.97 1337.07 1925.47 1657.71 1861.26C1657.79 1861.24 1657.87 1861.23 1657.95 1861.21L1658.34 1863.17C1337.36 1927.49 1033.36 1919.01 801.312 1853.27C569.32 1787.54 408.953 1664.47 375.874 1499.39C364.413 1442.18 368.997 1383.75 387.735 1325.57C347.008 1307.95 311.081 1288.58 280.526 1267.52C209.118 1218.3 166.948 1159.78 161.607 1092.9C156.27 1026.08 184.114 956.869 241.152 889.937C298.19 823.005 384.475 758.279 496.197 700.372C719.646 584.556 1045.01 495.93 1442.18 471.529L1442.3 473.526C1442.18 473.533 1442.07 473.54 1441.95 473.547C1045.14 497.966 720.196 586.523 497.118 702.148C385.544 759.978 299.493 824.559 242.674 891.235C185.854 957.911 158.319 1026.61 163.6 1092.74C168.876 1158.8 210.535 1216.84 281.661 1265.87C312.052 1286.82 347.805 1306.11 388.356 1323.66C424.074 1214.56 509.489 1106.39 632.132 1008.91C820.939 858.845 1098.21 733.899 1419.18 669.587L1419.58 671.548C1098.85 735.811 821.888 860.646 633.376 1010.48C510.798 1107.91 425.713 1215.82 390.204 1324.45C444.135 1347.64 506.479 1367.77 575.931 1384.65C821.23 1444.3 1154.94 1463.47 1519.06 1434.39L1519.22 1436.39C1154.96 1465.48 821.025 1446.31 575.458 1386.6C506.011 1369.71 443.612 1349.58 389.584 1326.36C370.988 1384.21 366.464 1442.24 377.835 1498.99Z" fill="url(#paint3_linear_298_2041)"/>
<path d="M801.857 1851.34C570.115 1785.69 410.69 1662.96 377.835 1498.99C366.464 1442.24 370.988 1384.21 389.584 1326.36C443.612 1349.58 506.011 1369.71 575.458 1386.6C821.025 1446.31 1154.96 1465.48 1519.22 1436.39L1657.71 1861.26C1337.07 1925.47 1033.49 1916.97 801.857 1851.34Z" fill="url(#paint4_linear_298_2041)"/>
<path d="M497.118 702.148C720.196 586.523 1045.14 497.966 1441.95 473.547L1419.58 671.548L1419.18 669.587C1098.21 733.899 820.939 858.845 632.132 1008.91C509.489 1106.39 424.074 1214.56 388.356 1323.66C347.805 1306.11 312.052 1286.82 281.661 1265.87C210.535 1216.84 168.876 1158.8 163.6 1092.74C158.319 1026.61 185.854 957.911 242.674 891.235C299.493 824.559 385.544 759.978 497.118 702.148Z" fill="url(#paint5_linear_298_2041)"/>
</g>
<g style="mix-blend-mode:soft-light" opacity="0.6">
<path d="M377.835 1498.99C410.69 1662.96 570.115 1785.69 801.857 1851.34C1033.49 1916.97 1337.07 1925.47 1657.71 1861.26C1657.79 1861.24 1657.87 1861.23 1657.95 1861.21L1658.34 1863.17C1337.36 1927.49 1033.36 1919.01 801.312 1853.27C569.32 1787.54 408.953 1664.47 375.874 1499.39C364.413 1442.18 368.997 1383.75 387.735 1325.57C347.008 1307.95 311.081 1288.58 280.526 1267.52C209.118 1218.3 166.948 1159.78 161.607 1092.9C156.27 1026.08 184.114 956.869 241.152 889.937C298.19 823.005 384.475 758.279 496.197 700.372C719.646 584.556 1045.01 495.93 1442.18 471.529L1442.3 473.526C1442.18 473.533 1442.07 473.54 1441.95 473.547C1045.14 497.966 720.196 586.523 497.118 702.148C385.544 759.978 299.493 824.559 242.674 891.235C185.854 957.911 158.319 1026.61 163.6 1092.74C168.876 1158.8 210.535 1216.84 281.661 1265.87C312.052 1286.82 347.805 1306.11 388.356 1323.66C424.074 1214.56 509.489 1106.39 632.132 1008.91C820.939 858.845 1098.21 733.899 1419.18 669.587L1419.58 671.548C1098.85 735.811 821.888 860.646 633.376 1010.48C510.798 1107.91 425.713 1215.82 390.204 1324.45C444.135 1347.64 506.479 1367.77 575.931 1384.65C821.23 1444.3 1154.94 1463.47 1519.06 1434.39L1519.22 1436.39C1154.96 1465.48 821.025 1446.31 575.458 1386.6C506.011 1369.71 443.612 1349.58 389.584 1326.36C370.988 1384.21 366.464 1442.24 377.835 1498.99Z" fill="url(#paint6_linear_298_2041)"/>
<path d="M801.857 1851.34C570.115 1785.69 410.69 1662.96 377.835 1498.99C366.464 1442.24 370.988 1384.21 389.584 1326.36C443.612 1349.58 506.011 1369.71 575.458 1386.6C821.025 1446.31 1154.96 1465.48 1519.22 1436.39L1657.71 1861.26C1337.07 1925.47 1033.49 1916.97 801.857 1851.34Z" fill="url(#paint7_linear_298_2041)"/>
<path d="M497.118 702.148C720.196 586.523 1045.14 497.966 1441.95 473.547L1419.58 671.548L1419.18 669.587C1098.21 733.899 820.939 858.845 632.132 1008.91C509.489 1106.39 424.074 1214.56 388.356 1323.66C347.805 1306.11 312.052 1286.82 281.661 1265.87C210.535 1216.84 168.876 1158.8 163.6 1092.74C158.319 1026.61 185.854 957.911 242.674 891.235C299.493 824.559 385.544 759.978 497.118 702.148Z" fill="url(#paint8_linear_298_2041)"/>
</g>
<g style="mix-blend-mode:hue" opacity="0.7">
<path d="M377.835 1498.99C410.69 1662.96 570.115 1785.69 801.857 1851.34C1033.49 1916.97 1337.07 1925.47 1657.71 1861.26C1657.79 1861.24 1657.87 1861.23 1657.95 1861.21L1658.34 1863.17C1337.36 1927.49 1033.36 1919.01 801.312 1853.27C569.32 1787.54 408.953 1664.47 375.874 1499.39C364.413 1442.18 368.997 1383.75 387.735 1325.57C347.008 1307.95 311.081 1288.58 280.526 1267.52C209.118 1218.3 166.948 1159.78 161.607 1092.9C156.27 1026.08 184.114 956.869 241.152 889.937C298.19 823.005 384.475 758.279 496.197 700.372C719.646 584.556 1045.01 495.93 1442.18 471.529L1442.3 473.526C1442.18 473.533 1442.07 473.54 1441.95 473.547C1045.14 497.966 720.196 586.523 497.118 702.148C385.544 759.978 299.493 824.559 242.674 891.235C185.854 957.911 158.319 1026.61 163.6 1092.74C168.876 1158.8 210.535 1216.84 281.661 1265.87C312.052 1286.82 347.805 1306.11 388.356 1323.66C424.074 1214.56 509.489 1106.39 632.132 1008.91C820.939 858.845 1098.21 733.899 1419.18 669.587L1419.58 671.548C1098.85 735.811 821.888 860.646 633.376 1010.48C510.798 1107.91 425.713 1215.82 390.204 1324.45C444.135 1347.64 506.479 1367.77 575.931 1384.65C821.23 1444.3 1154.94 1463.47 1519.06 1434.39L1519.22 1436.39C1154.96 1465.48 821.025 1446.31 575.458 1386.6C506.011 1369.71 443.612 1349.58 389.584 1326.36C370.988 1384.21 366.464 1442.24 377.835 1498.99Z" fill="url(#paint9_linear_298_2041)"/>
<path d="M801.857 1851.34C570.115 1785.69 410.69 1662.96 377.835 1498.99C366.464 1442.24 370.988 1384.21 389.584 1326.36C443.612 1349.58 506.011 1369.71 575.458 1386.6C821.025 1446.31 1154.96 1465.48 1519.22 1436.39L1657.71 1861.26C1337.07 1925.47 1033.49 1916.97 801.857 1851.34Z" fill="url(#paint10_linear_298_2041)"/>
<path d="M497.118 702.148C720.196 586.523 1045.14 497.966 1441.95 473.547L1419.58 671.548L1419.18 669.587C1098.21 733.899 820.939 858.845 632.132 1008.91C509.489 1106.39 424.074 1214.56 388.356 1323.66C347.805 1306.11 312.052 1286.82 281.661 1265.87C210.535 1216.84 168.876 1158.8 163.6 1092.74C158.319 1026.61 185.854 957.911 242.674 891.235C299.493 824.559 385.544 759.978 497.118 702.148Z" fill="url(#paint11_linear_298_2041)"/>
</g>
<g style="mix-blend-mode:soft-light">
<path d="M377.835 1498.99C410.69 1662.96 570.115 1785.69 801.857 1851.34C1033.49 1916.97 1337.07 1925.47 1657.71 1861.26C1657.79 1861.24 1657.87 1861.23 1657.95 1861.21L1658.34 1863.17C1337.36 1927.49 1033.36 1919.01 801.312 1853.27C569.32 1787.54 408.953 1664.47 375.874 1499.39C364.413 1442.18 368.997 1383.75 387.735 1325.57C347.008 1307.95 311.081 1288.58 280.526 1267.52C209.118 1218.3 166.948 1159.78 161.607 1092.9C156.27 1026.08 184.114 956.869 241.152 889.937C298.19 823.005 384.475 758.279 496.197 700.372C719.646 584.556 1045.01 495.93 1442.18 471.529L1442.3 473.526C1442.18 473.533 1442.07 473.54 1441.95 473.547C1045.14 497.966 720.196 586.523 497.118 702.148C385.544 759.978 299.493 824.559 242.674 891.235C185.854 957.911 158.319 1026.61 163.6 1092.74C168.876 1158.8 210.535 1216.84 281.661 1265.87C312.052 1286.82 347.805 1306.11 388.356 1323.66C424.074 1214.56 509.489 1106.39 632.132 1008.91C820.939 858.845 1098.21 733.899 1419.18 669.587L1419.58 671.548C1098.85 735.811 821.888 860.646 633.376 1010.48C510.798 1107.91 425.713 1215.82 390.204 1324.45C444.135 1347.64 506.479 1367.77 575.931 1384.65C821.23 1444.3 1154.94 1463.47 1519.06 1434.39L1519.22 1436.39C1154.96 1465.48 821.025 1446.31 575.458 1386.6C506.011 1369.71 443.612 1349.58 389.584 1326.36C370.988 1384.21 366.464 1442.24 377.835 1498.99Z" fill="url(#paint12_linear_298_2041)" fill-opacity="0.3"/>
<path d="M801.857 1851.34C570.115 1785.69 410.69 1662.96 377.835 1498.99C366.464 1442.24 370.988 1384.21 389.584 1326.36C443.612 1349.58 506.011 1369.71 575.458 1386.6C821.025 1446.31 1154.96 1465.48 1519.22 1436.39L1657.71 1861.26C1337.07 1925.47 1033.49 1916.97 801.857 1851.34Z" fill="url(#paint13_linear_298_2041)" fill-opacity="0.3"/>
<path d="M497.118 702.148C720.196 586.523 1045.14 497.966 1441.95 473.547L1419.58 671.548L1419.18 669.587C1098.21 733.899 820.939 858.845 632.132 1008.91C509.489 1106.39 424.074 1214.56 388.356 1323.66C347.805 1306.11 312.052 1286.82 281.661 1265.87C210.535 1216.84 168.876 1158.8 163.6 1092.74C158.319 1026.61 185.854 957.911 242.674 891.235C299.493 824.559 385.544 759.978 497.118 702.148Z" fill="url(#paint14_linear_298_2041)" fill-opacity="0.3"/>
</g>
<g style="mix-blend-mode:overlay" filter="url(#filter1_f_298_2041)">
<path d="M1424.24 670.567C782.534 799.143 315.78 1170.13 381.712 1499.19C447.645 1828.25 1021.3 1990.77 1663 1862.19" stroke="#E5DEFF" stroke-width="3"/>
</g>
<g style="mix-blend-mode:soft-light" filter="url(#filter2_f_298_2041)">
<path d="M1416.24 670.567C774.534 799.143 307.78 1170.13 373.712 1499.19C439.645 1828.25 1013.3 1990.77 1655 1862.19" stroke="white" stroke-width="28"/>
</g>
<g style="mix-blend-mode:overlay" filter="url(#filter3_f_298_2041)">
<path d="M1424.2 671.374C784.726 799.504 319.78 1170.13 385.712 1499.19C451.645 1828.25 1023.49 1991.13 1662.96 1863" stroke="white"/>
</g>
<g style="mix-blend-mode:overlay" filter="url(#filter4_f_298_2041)">
<path d="M1408.24 670.567C766.534 799.143 299.78 1170.13 365.712 1499.19C431.645 1828.25 1005.3 1990.77 1647 1862.19" stroke="white" stroke-width="28"/>
</g>
<g style="mix-blend-mode:overlay" filter="url(#filter5_f_298_2041)">
<path d="M1384.24 646.567C742.534 775.143 275.78 1146.13 341.712 1475.19C407.645 1804.25 981.297 1966.77 1623 1838.19" stroke="white" stroke-width="8"/>
</g>
<g style="mix-blend-mode:soft-light" filter="url(#filter6_f_298_2041)">
<path d="M1355.77 545.296C714.066 673.872 245.319 1034.92 308.795 1351.71C372.27 1668.5 943.93 1821.08 1585.63 1692.51" stroke="#CDD2F7" stroke-width="8"/>
</g>
<g style="mix-blend-mode:overlay" filter="url(#filter7_f_298_2041)">
<path d="M1355.77 545.296C714.066 673.872 245.319 1034.92 308.795 1351.71C372.27 1668.5 943.93 1821.08 1585.63 1692.51" stroke="#CDD2F7"/>
</g>
<g style="mix-blend-mode:overlay" filter="url(#filter8_f_298_2041)">
<path d="M1339.77 537.296C698.066 665.872 229.319 1026.92 292.795 1343.71C356.27 1660.5 927.93 1813.08 1569.63 1684.51" stroke="#CDD2F7"/>
</g>
<g style="mix-blend-mode:overlay" filter="url(#filter9_f_298_2041)">
<path d="M1343.72 525.039C702.021 653.615 232.39 1010.24 294.773 1321.58C357.155 1632.92 927.93 1781.08 1569.63 1652.51" stroke="#CDD2F7"/>
</g>
<g style="mix-blend-mode:overlay" filter="url(#filter10_f_298_2041)">
<path d="M1347.77 569.296C706.066 697.872 237.319 1058.92 300.795 1375.71C364.27 1692.5 935.93 1845.08 1577.63 1716.51" stroke="#CDD2F7"/>
</g>
<g style="mix-blend-mode:soft-light" filter="url(#filter11_f_298_2041)">
<path d="M1365.21 576.403C723.504 704.979 252.645 1055.48 313.514 1359.26C374.383 1663.05 943.93 1805.08 1585.63 1676.51" stroke="#CDD2F7" stroke-width="8"/>
</g>
<g style="mix-blend-mode:overlay" filter="url(#filter12_f_298_2041)">
<path d="M1287.91 446.027C646.202 574.603 175.209 924.431 235.912 1227.39C296.615 1530.35 866.027 1671.71 1507.73 1543.14" stroke="url(#paint15_linear_298_2041)" stroke-width="3"/>
</g>
<g style="mix-blend-mode:overlay" filter="url(#filter13_f_298_2041)">
<path d="M1447.1 472.517C652.979 521.55 145.891 822.745 166.77 1084.17C187.649 1345.6 794.333 1477.41 1522.7 1419.24" stroke="#E5DEFF" stroke-width="3"/>
</g>
<g style="mix-blend-mode:hard-light" opacity="0.7" filter="url(#filter14_f_298_2041)">
<path d="M1447.1 472.517C652.979 521.55 145.891 822.745 166.77 1084.17C187.649 1345.6 794.333 1477.41 1522.7 1419.24" stroke="url(#paint16_linear_298_2041)" stroke-width="4"/>
</g>
<g style="mix-blend-mode:overlay" opacity="0.6" filter="url(#filter15_f_298_2041)">
<path d="M1447.1 472.517C652.979 521.55 145.891 822.745 166.77 1084.17C187.649 1345.6 794.333 1477.41 1522.7 1419.24" stroke="#5142F1" stroke-width="2"/>
</g>
<g style="mix-blend-mode:overlay" filter="url(#filter16_f_298_2041)">
<path d="M1424.2 671.374C784.726 799.504 319.78 1170.13 385.712 1499.19C451.645 1828.25 1023.49 1991.13 1662.96 1863" stroke="url(#paint17_linear_298_2041)" stroke-width="130"/>
</g>
<g style="mix-blend-mode:soft-light" opacity="0.4" filter="url(#filter17_f_298_2041)">
<path d="M1344.2 695.374C704.726 823.504 239.78 1194.13 305.712 1523.19C371.645 1852.25 943.489 2015.13 1582.96 1887" stroke="url(#paint18_linear_298_2041)" stroke-width="130"/>
</g>
<g filter="url(#filter18_f_298_2041)">
<circle cx="365" cy="365" r="365" transform="matrix(1 0 0 -1 1303.96 2012)" fill="black"/>
</g>
<g filter="url(#filter19_f_298_2041)">
<ellipse cx="392.5" cy="221.5" rx="392.5" ry="221.5" transform="matrix(1 0 0 -1 644.961 647.002)" fill="black"/>
</g>
</g>
<defs>
<filter id="filter0_f_298_2041" x="0.960938" y="311.529" width="1817.38" height="1755.71" filterUnits="userSpaceOnUse" color-interpolation-filters="sRGB">
<feFlood flood-opacity="0" result="BackgroundImageFix"/>
<feBlend mode="normal" in="SourceGraphic" in2="BackgroundImageFix" result="shape"/>
<feGaussianBlur stdDeviation="80" result="effect1_foregroundBlur_298_2041"/>
</filter>
<filter id="filter1_f_298_2041" x="358.002" y="653.096" width="1321.29" height="1270.64" filterUnits="userSpaceOnUse" color-interpolation-filters="sRGB">
<feFlood flood-opacity="0" result="BackgroundImageFix"/>
<feBlend mode="normal" in="SourceGraphic" in2="BackgroundImageFix" result="shape"/>
<feGaussianBlur stdDeviation="8" result="effect1_foregroundBlur_298_2041"/>
</filter>
<filter id="filter2_f_298_2041" x="325.484" y="628.84" width="1360.27" height="1319.39" filterUnits="userSpaceOnUse" color-interpolation-filters="sRGB">
<feFlood flood-opacity="0" result="BackgroundImageFix"/>
<feBlend mode="normal" in="SourceGraphic" in2="BackgroundImageFix" result="shape"/>
<feGaussianBlur stdDeviation="14" result="effect1_foregroundBlur_298_2041"/>
</filter>
<filter id="filter3_f_298_2041" x="374.982" y="666.884" width="1292.08" height="1244.36" filterUnits="userSpaceOnUse" color-interpolation-filters="sRGB">
<feFlood flood-opacity="0" result="BackgroundImageFix"/>
<feBlend mode="normal" in="SourceGraphic" in2="BackgroundImageFix" result="shape"/>
<feGaussianBlur stdDeviation="2" result="effect1_foregroundBlur_298_2041"/>
</filter>
<filter id="filter4_f_298_2041" x="293.484" y="604.84" width="1408.27" height="1367.39" filterUnits="userSpaceOnUse" color-interpolation-filters="sRGB">
<feFlood flood-opacity="0" result="BackgroundImageFix"/>
<feBlend mode="normal" in="SourceGraphic" in2="BackgroundImageFix" result="shape"/>
<feGaussianBlur stdDeviation="26" result="effect1_foregroundBlur_298_2041"/>
</filter>
<filter id="filter5_f_298_2041" x="292.498" y="603.645" width="1370.29" height="1321.59" filterUnits="userSpaceOnUse" color-interpolation-filters="sRGB">
<feFlood flood-opacity="0" result="BackgroundImageFix"/>
<feBlend mode="normal" in="SourceGraphic" in2="BackgroundImageFix" result="shape"/>
<feGaussianBlur stdDeviation="19.5" result="effect1_foregroundBlur_298_2041"/>
</filter>
<filter id="filter6_f_298_2041" x="283.033" y="525.374" width="1319.38" height="1232.74" filterUnits="userSpaceOnUse" color-interpolation-filters="sRGB">
<feFlood flood-opacity="0" result="BackgroundImageFix"/>
<feBlend mode="normal" in="SourceGraphic" in2="BackgroundImageFix" result="shape"/>
<feGaussianBlur stdDeviation="8" result="effect1_foregroundBlur_298_2041"/>
</filter>
<filter id="filter7_f_298_2041" x="298.537" y="540.806" width="1291.19" height="1201.81" filterUnits="userSpaceOnUse" color-interpolation-filters="sRGB">
<feFlood flood-opacity="0" result="BackgroundImageFix"/>
<feBlend mode="normal" in="SourceGraphic" in2="BackgroundImageFix" result="shape"/>
<feGaussianBlur stdDeviation="2" result="effect1_foregroundBlur_298_2041"/>
</filter>
<filter id="filter8_f_298_2041" x="282.537" y="532.806" width="1291.19" height="1201.81" filterUnits="userSpaceOnUse" color-interpolation-filters="sRGB">
<feFlood flood-opacity="0" result="BackgroundImageFix"/>
<feBlend mode="normal" in="SourceGraphic" in2="BackgroundImageFix" result="shape"/>
<feGaussianBlur stdDeviation="2" result="effect1_foregroundBlur_298_2041"/>
</filter>
<filter id="filter9_f_298_2041" x="284.711" y="520.548" width="1289.02" height="1182.8" filterUnits="userSpaceOnUse" color-interpolation-filters="sRGB">
<feFlood flood-opacity="0" result="BackgroundImageFix"/>
<feBlend mode="normal" in="SourceGraphic" in2="BackgroundImageFix" result="shape"/>
<feGaussianBlur stdDeviation="2" result="effect1_foregroundBlur_298_2041"/>
</filter>
<filter id="filter10_f_298_2041" x="290.537" y="564.806" width="1291.19" height="1201.81" filterUnits="userSpaceOnUse" color-interpolation-filters="sRGB">
<feFlood flood-opacity="0" result="BackgroundImageFix"/>
<feBlend mode="normal" in="SourceGraphic" in2="BackgroundImageFix" result="shape"/>
<feGaussianBlur stdDeviation="2" result="effect1_foregroundBlur_298_2041"/>
</filter>
<filter id="filter11_f_298_2041" x="288.211" y="556.48" width="1314.21" height="1187.42" filterUnits="userSpaceOnUse" color-interpolation-filters="sRGB">
<feFlood flood-opacity="0" result="BackgroundImageFix"/>
<feBlend mode="normal" in="SourceGraphic" in2="BackgroundImageFix" result="shape"/>
<feGaussianBlur stdDeviation="8" result="effect1_foregroundBlur_298_2041"/>
</filter>
<filter id="filter12_f_298_2041" x="224.143" y="439.556" width="1288.88" height="1157.59" filterUnits="userSpaceOnUse" color-interpolation-filters="sRGB">
<feFlood flood-opacity="0" result="BackgroundImageFix"/>
<feBlend mode="normal" in="SourceGraphic" in2="BackgroundImageFix" result="shape"/>
<feGaussianBlur stdDeviation="2.5" result="effect1_foregroundBlur_298_2041"/>
</filter>
<filter id="filter13_f_298_2041" x="156.648" y="463.02" width="1374.18" height="979.301" filterUnits="userSpaceOnUse" color-interpolation-filters="sRGB">
<feFlood flood-opacity="0" result="BackgroundImageFix"/>
<feBlend mode="normal" in="SourceGraphic" in2="BackgroundImageFix" result="shape"/>
<feGaussianBlur stdDeviation="4" result="effect1_foregroundBlur_298_2041"/>
</filter>
<filter id="filter14_f_298_2041" x="144.148" y="450.521" width="1398.71" height="1004.3" filterUnits="userSpaceOnUse" color-interpolation-filters="sRGB">
<feFlood flood-opacity="0" result="BackgroundImageFix"/>
<feBlend mode="normal" in="SourceGraphic" in2="BackgroundImageFix" result="shape"/>
<feGaussianBlur stdDeviation="10" result="effect1_foregroundBlur_298_2041"/>
</filter>
<filter id="filter15_f_298_2041" x="162.148" y="468.519" width="1363.63" height="968.302" filterUnits="userSpaceOnUse" color-interpolation-filters="sRGB">
<feFlood flood-opacity="0" result="BackgroundImageFix"/>
<feBlend mode="normal" in="SourceGraphic" in2="BackgroundImageFix" result="shape"/>
<feGaussianBlur stdDeviation="1.5" result="effect1_foregroundBlur_298_2041"/>
</filter>
<filter id="filter16_f_298_2041" x="280.391" y="573.641" width="1429.34" height="1432.11" filterUnits="userSpaceOnUse" color-interpolation-filters="sRGB">
<feFlood flood-opacity="0" result="BackgroundImageFix"/>
<feBlend mode="normal" in="SourceGraphic" in2="BackgroundImageFix" result="shape"/>
<feGaussianBlur stdDeviation="17" result="effect1_foregroundBlur_298_2041"/>
</filter>
<filter id="filter17_f_298_2041" x="152.391" y="549.641" width="1525.34" height="1528.11" filterUnits="userSpaceOnUse" color-interpolation-filters="sRGB">
<feFlood flood-opacity="0" result="BackgroundImageFix"/>
<feBlend mode="normal" in="SourceGraphic" in2="BackgroundImageFix" result="shape"/>
<feGaussianBlur stdDeviation="41" result="effect1_foregroundBlur_298_2041"/>
</filter>
<filter id="filter18_f_298_2041" x="1099.96" y="1078" width="1138" height="1138" filterUnits="userSpaceOnUse" color-interpolation-filters="sRGB">
<feFlood flood-opacity="0" result="BackgroundImageFix"/>
<feBlend mode="normal" in="SourceGraphic" in2="BackgroundImageFix" result="shape"/>
<feGaussianBlur stdDeviation="102" result="effect1_foregroundBlur_298_2041"/>
</filter>
<filter id="filter19_f_298_2041" x="440.961" y="0.00195312" width="1193" height="851" filterUnits="userSpaceOnUse" color-interpolation-filters="sRGB">
<feFlood flood-opacity="0" result="BackgroundImageFix"/>
<feBlend mode="normal" in="SourceGraphic" in2="BackgroundImageFix" result="shape"/>
<feGaussianBlur stdDeviation="102" result="effect1_foregroundBlur_298_2041"/>
</filter>
<linearGradient id="paint0_linear_298_2041" x1="859.961" y1="1888.82" x2="753.463" y2="574.002" gradientUnits="userSpaceOnUse">
<stop stop-color="#EFF4FF"/>
<stop offset="0.333531" stop-color="#E8E2FE" stop-opacity="0"/>
<stop offset="0.620358" stop-color="#ECECFF"/>
<stop offset="0.959756" stop-color="#EAE6FE" stop-opacity="0"/>
</linearGradient>
<linearGradient id="paint1_linear_298_2041" x1="859.961" y1="1888.82" x2="753.463" y2="574.002" gradientUnits="userSpaceOnUse">
<stop stop-color="#EFF4FF"/>
<stop offset="0.333531" stop-color="#E8E2FE" stop-opacity="0"/>
<stop offset="0.620358" stop-color="#ECECFF"/>
<stop offset="0.959756" stop-color="#EAE6FE" stop-opacity="0"/>
</linearGradient>
<linearGradient id="paint2_linear_298_2041" x1="859.961" y1="1888.82" x2="753.463" y2="574.002" gradientUnits="userSpaceOnUse">
<stop stop-color="#EFF4FF"/>
<stop offset="0.333531" stop-color="#E8E2FE" stop-opacity="0"/>
<stop offset="0.620358" stop-color="#ECECFF"/>
<stop offset="0.959756" stop-color="#EAE6FE" stop-opacity="0"/>
</linearGradient>
<linearGradient id="paint3_linear_298_2041" x1="859.961" y1="1888.82" x2="753.463" y2="574.002" gradientUnits="userSpaceOnUse">
<stop stop-color="#EFF4FF"/>
<stop offset="0.333531" stop-color="#E8E2FE" stop-opacity="0"/>
<stop offset="0.620358" stop-color="#ECECFF"/>
<stop offset="0.959756" stop-color="#EAE6FE" stop-opacity="0"/>
</linearGradient>
<linearGradient id="paint4_linear_298_2041" x1="859.961" y1="1888.82" x2="753.463" y2="574.002" gradientUnits="userSpaceOnUse">
<stop stop-color="#EFF4FF"/>
<stop offset="0.333531" stop-color="#E8E2FE" stop-opacity="0"/>
<stop offset="0.620358" stop-color="#ECECFF"/>
<stop offset="0.959756" stop-color="#EAE6FE" stop-opacity="0"/>
</linearGradient>
<linearGradient id="paint5_linear_298_2041" x1="859.961" y1="1888.82" x2="753.463" y2="574.002" gradientUnits="userSpaceOnUse">
<stop stop-color="#EFF4FF"/>
<stop offset="0.333531" stop-color="#E8E2FE" stop-opacity="0"/>
<stop offset="0.620358" stop-color="#ECECFF"/>
<stop offset="0.959756" stop-color="#EAE6FE" stop-opacity="0"/>
</linearGradient>
<linearGradient id="paint6_linear_298_2041" x1="859.961" y1="1888.82" x2="753.463" y2="574.002" gradientUnits="userSpaceOnUse">
<stop stop-color="#EFF4FF"/>
<stop offset="0.333531" stop-color="#E8E2FE" stop-opacity="0"/>
<stop offset="0.620358" stop-color="#ECECFF"/>
<stop offset="0.959756" stop-color="#EAE6FE" stop-opacity="0"/>
</linearGradient>
<linearGradient id="paint7_linear_298_2041" x1="859.961" y1="1888.82" x2="753.463" y2="574.002" gradientUnits="userSpaceOnUse">
<stop stop-color="#EFF4FF"/>
<stop offset="0.333531" stop-color="#E8E2FE" stop-opacity="0"/>
<stop offset="0.620358" stop-color="#ECECFF"/>
<stop offset="0.959756" stop-color="#EAE6FE" stop-opacity="0"/>
</linearGradient>
<linearGradient id="paint8_linear_298_2041" x1="859.961" y1="1888.82" x2="753.463" y2="574.002" gradientUnits="userSpaceOnUse">
<stop stop-color="#EFF4FF"/>
<stop offset="0.333531" stop-color="#E8E2FE" stop-opacity="0"/>
<stop offset="0.620358" stop-color="#ECECFF"/>
<stop offset="0.959756" stop-color="#EAE6FE" stop-opacity="0"/>
</linearGradient>
<linearGradient id="paint9_linear_298_2041" x1="859.961" y1="1888.82" x2="743.961" y2="644.316" gradientUnits="userSpaceOnUse">
<stop stop-color="#E4EFFF"/>
<stop offset="0.364078" stop-color="#C5D8F4" stop-opacity="0"/>
<stop offset="0.620358" stop-color="#CEDDFB"/>
<stop offset="0.959756" stop-color="#B1C8F6" stop-opacity="0"/>
</linearGradient>
<linearGradient id="paint10_linear_298_2041" x1="859.961" y1="1888.82" x2="743.961" y2="644.316" gradientUnits="userSpaceOnUse">
<stop stop-color="#E4EFFF"/>
<stop offset="0.364078" stop-color="#C5D8F4" stop-opacity="0"/>
<stop offset="0.620358" stop-color="#CEDDFB"/>
<stop offset="0.959756" stop-color="#B1C8F6" stop-opacity="0"/>
</linearGradient>
<linearGradient id="paint11_linear_298_2041" x1="859.961" y1="1888.82" x2="743.961" y2="644.316" gradientUnits="userSpaceOnUse">
<stop stop-color="#E4EFFF"/>
<stop offset="0.364078" stop-color="#C5D8F4" stop-opacity="0"/>
<stop offset="0.620358" stop-color="#CEDDFB"/>
<stop offset="0.959756" stop-color="#B1C8F6" stop-opacity="0"/>
</linearGradient>
<linearGradient id="paint12_linear_298_2041" x1="859.961" y1="1888.82" x2="743.961" y2="644.316" gradientUnits="userSpaceOnUse">
<stop stop-color="#E1E0FD"/>
<stop offset="0.364078" stop-color="#5142F1" stop-opacity="0"/>
<stop offset="0.620358" stop-color="#D5EBFF"/>
<stop offset="0.959756" stop-color="#B1C0F6" stop-opacity="0"/>
</linearGradient>
<linearGradient id="paint13_linear_298_2041" x1="859.961" y1="1888.82" x2="743.961" y2="644.316" gradientUnits="userSpaceOnUse">
<stop stop-color="#E1E0FD"/>
<stop offset="0.364078" stop-color="#5142F1" stop-opacity="0"/>
<stop offset="0.620358" stop-color="#D5EBFF"/>
<stop offset="0.959756" stop-color="#B1C0F6" stop-opacity="0"/>
</linearGradient>
<linearGradient id="paint14_linear_298_2041" x1="859.961" y1="1888.82" x2="743.961" y2="644.316" gradientUnits="userSpaceOnUse">
<stop stop-color="#E1E0FD"/>
<stop offset="0.364078" stop-color="#5142F1" stop-opacity="0"/>
<stop offset="0.620358" stop-color="#D5EBFF"/>
<stop offset="0.959756" stop-color="#B1C0F6" stop-opacity="0"/>
</linearGradient>
<linearGradient id="paint15_linear_298_2041" x1="809.068" y1="1562.15" x2="1017.16" y2="528.218" gradientUnits="userSpaceOnUse">
<stop stop-color="#DBDBF7"/>
<stop offset="1" stop-color="#DDDBF7" stop-opacity="0"/>
</linearGradient>
<linearGradient id="paint16_linear_298_2041" x1="987.463" y1="1445.5" x2="1908.46" y2="1459" gradientUnits="userSpaceOnUse">
<stop stop-color="#E0DDFC" stop-opacity="0.8"/>
<stop offset="1" stop-color="#D1D1F4" stop-opacity="0"/>
</linearGradient>
<linearGradient id="paint17_linear_298_2041" x1="936.461" y1="1867.5" x2="1191.96" y2="725.002" gradientUnits="userSpaceOnUse">
<stop stop-color="white" stop-opacity="0"/>
<stop offset="0.440439" stop-color="white"/>
<stop offset="1" stop-color="white" stop-opacity="0"/>
</linearGradient>
<linearGradient id="paint18_linear_298_2041" x1="680.961" y1="1407" x2="1111.96" y2="749.002" gradientUnits="userSpaceOnUse">
<stop stop-color="#CDD2F6"/>
<stop offset="0.292541" stop-color="white" stop-opacity="0"/>
<stop offset="0.672218" stop-color="#5142F1" stop-opacity="0"/>
</linearGradient>
</defs>
</svg>
