<svg width="412" height="387" viewBox="0 0 412 387" fill="none" xmlns="http://www.w3.org/2000/svg">
<path d="M123.967 67.6798H96.9665V102.095H123.967V67.6798Z" fill="url(#paint0_linear_92_423)" fill-opacity="0.02"/>
<path d="M97.6415 269.009H70.6404V303.425H97.6415V269.009Z" fill="url(#paint1_linear_92_423)" fill-opacity="0.02"/>
<path d="M360.901 101.235H333.9V135.65H360.901V101.235Z" fill="url(#paint2_linear_92_423)" fill-opacity="0.02"/>
<path d="M17.2023 1H-8V33.1227M17.2023 1V33.1227M17.2023 1H42.4046M17.2023 33.1227H-8M17.2023 33.1227H42.4046M17.2023 33.1227V65.2455M-8 33.1227V65.2455M42.4046 1V33.1227M42.4046 1H67.607M42.4046 33.1227H67.607M42.4046 33.1227V65.2455M67.607 1V33.1227M67.607 1H92.8093M67.607 33.1227H92.8093M67.607 33.1227V65.2455M92.8093 1V33.1227M92.8093 1H118.012M92.8093 33.1227H118.012M92.8093 33.1227V65.2455M118.012 1V33.1227M118.012 1H143.214M118.012 33.1227H143.214M118.012 33.1227V65.2455M143.214 1V33.1227M143.214 1H168.416M143.214 33.1227H168.416M143.214 33.1227V65.2455M168.416 1V33.1227M168.416 1H193.619M168.416 33.1227H193.619M168.416 33.1227V65.2455M193.619 1V33.1227M193.619 1H218.821M193.619 33.1227H218.821M193.619 33.1227V65.2455M218.821 1V33.1227M218.821 1H244.023M218.821 33.1227H244.023M218.821 33.1227V65.2455M244.023 1V33.1227M244.023 1H269.226M244.023 33.1227H269.226M244.023 33.1227V65.2455M269.226 1V33.1227M269.226 1H294.428M269.226 33.1227H294.428M269.226 33.1227V65.2455M294.428 1V33.1227M294.428 1H319.63M294.428 33.1227H319.63M294.428 33.1227V65.2455M319.63 1V33.1227M319.63 1H344.833M319.63 33.1227H344.833M319.63 33.1227V65.2455M344.833 1V33.1227M344.833 1H370.035M344.833 33.1227H370.035M344.833 33.1227V65.2455M370.035 1V33.1227M370.035 1H395.237M370.035 33.1227H395.237M370.035 33.1227V65.2455M395.237 1V33.1227M395.237 1H420.439V33.1227M395.237 33.1227H420.439M395.237 33.1227V65.2455M420.439 33.1227V65.2455M17.2023 65.2455H-8M17.2023 65.2455H42.4046M17.2023 65.2455V97.3682M-8 65.2455V97.3682M42.4046 65.2455H67.607M42.4046 65.2455V97.3682M67.607 65.2455H92.8093M67.607 65.2455V97.3682M92.8093 65.2455H118.012M92.8093 65.2455V97.3682M118.012 65.2455H143.214M118.012 65.2455V97.3682M143.214 65.2455H168.416M143.214 65.2455V97.3682M168.416 65.2455H193.619M168.416 65.2455V97.3682M193.619 65.2455H218.821M193.619 65.2455V97.3682M218.821 65.2455H244.023M218.821 65.2455V97.3682M244.023 65.2455H269.226M244.023 65.2455V97.3682M269.226 65.2455H294.428M269.226 65.2455V97.3682M294.428 65.2455H319.63M294.428 65.2455V97.3682M319.63 65.2455H344.833M319.63 65.2455V97.3682M344.833 65.2455H370.035M344.833 65.2455V97.3682M370.035 65.2455H395.237M370.035 65.2455V97.3682M395.237 65.2455H420.439M395.237 65.2455V97.3682M420.439 65.2455V97.3682M17.2023 97.3682H-8M17.2023 97.3682H42.4046M17.2023 97.3682V129.491M-8 97.3682V129.491M42.4046 97.3682H67.607M42.4046 97.3682V129.491M67.607 97.3682H92.8093M67.607 97.3682V129.491M92.8093 97.3682H118.012M92.8093 97.3682V129.491M118.012 97.3682H143.214M118.012 97.3682V129.491M143.214 97.3682H168.416M143.214 97.3682V129.491M168.416 97.3682H193.619M168.416 97.3682V129.491M193.619 97.3682H218.821M193.619 97.3682V129.491M218.821 97.3682H244.023M218.821 97.3682V129.491M244.023 97.3682H269.226M244.023 97.3682V129.491M269.226 97.3682H294.428M269.226 97.3682V129.491M294.428 97.3682H319.63M294.428 97.3682V129.491M319.63 97.3682H344.833M319.63 97.3682V129.491M344.833 97.3682H370.035M344.833 97.3682V129.491M370.035 97.3682H395.237M370.035 97.3682V129.491M395.237 97.3682H420.439M395.237 97.3682V129.491M420.439 97.3682V129.491M17.2023 129.491H-8M17.2023 129.491H42.4046M17.2023 129.491V161.614M-8 129.491V161.614M42.4046 129.491H67.607M42.4046 129.491V161.614M67.607 129.491H92.8093M67.607 129.491V161.614M92.8093 129.491H118.012M92.8093 129.491V161.614M118.012 129.491H143.214M118.012 129.491V161.614M143.214 129.491H168.416M143.214 129.491V161.614M168.416 129.491H193.619M168.416 129.491V161.614M193.619 129.491H218.821M193.619 129.491V161.614M218.821 129.491H244.023M218.821 129.491V161.614M244.023 129.491H269.226M244.023 129.491V161.614M269.226 129.491H294.428M269.226 129.491V161.614M294.428 129.491H319.63M294.428 129.491V161.614M319.63 129.491H344.833M319.63 129.491V161.614M344.833 129.491H370.035M344.833 129.491V161.614M370.035 129.491H395.237M370.035 129.491V161.614M395.237 129.491H420.439M395.237 129.491V161.614M420.439 129.491V161.614M17.2023 161.614H-8M17.2023 161.614H42.4046M17.2023 161.614V193.736M-8 161.614V193.736M42.4046 161.614H67.607M42.4046 161.614V193.736M67.607 161.614H92.8093M67.607 161.614V193.736M92.8093 161.614H118.012M92.8093 161.614V193.736M118.012 161.614H143.214M118.012 161.614V193.736M143.214 161.614H168.416M143.214 161.614V193.736M168.416 161.614H193.619M168.416 161.614V193.736M193.619 161.614H218.821M193.619 161.614V193.736M218.821 161.614H244.023M218.821 161.614V193.736M244.023 161.614H269.226M244.023 161.614V193.736M269.226 161.614H294.428M269.226 161.614V193.736M294.428 161.614H319.63M294.428 161.614V193.736M319.63 161.614H344.833M319.63 161.614V193.736M344.833 161.614H370.035M344.833 161.614V193.736M370.035 161.614H395.237M370.035 161.614V193.736M395.237 161.614H420.439M395.237 161.614V193.736M420.439 161.614V193.736M17.2023 193.736H-8M17.2023 193.736H42.4046M17.2023 193.736V225.859M-8 193.736V225.859M42.4046 193.736H67.607M42.4046 193.736V225.859M67.607 193.736H92.8093M67.607 193.736V225.859M92.8093 193.736H118.012M92.8093 193.736V225.859M118.012 193.736H143.214M118.012 193.736V225.859M143.214 193.736H168.416M143.214 193.736V225.859M168.416 193.736H193.619M168.416 193.736V225.859M193.619 193.736H218.821M193.619 193.736V225.859M218.821 193.736H244.023M218.821 193.736V225.859M244.023 193.736H269.226M244.023 193.736V225.859M269.226 193.736H294.428M269.226 193.736V225.859M294.428 193.736H319.63M294.428 193.736V225.859M319.63 193.736H344.833M319.63 193.736V225.859M344.833 193.736H370.035M344.833 193.736V225.859M370.035 193.736H395.237M370.035 193.736V225.859M395.237 193.736H420.439M395.237 193.736V225.859M420.439 193.736V225.859M17.2023 225.859H-8M17.2023 225.859H42.4046M17.2023 225.859V257.982M-8 225.859V257.982M42.4046 225.859H67.607M42.4046 225.859V257.982M67.607 225.859H92.8093M67.607 225.859V257.982M92.8093 225.859H118.012M92.8093 225.859V257.982M118.012 225.859H143.214M118.012 225.859V257.982M143.214 225.859H168.416M143.214 225.859V257.982M168.416 225.859H193.619M168.416 225.859V257.982M193.619 225.859H218.821M193.619 225.859V257.982M218.821 225.859H244.023M218.821 225.859V257.982M244.023 225.859H269.226M244.023 225.859V257.982M269.226 225.859H294.428M269.226 225.859V257.982M294.428 225.859H319.63M294.428 225.859V257.982M319.63 225.859H344.833M319.63 225.859V257.982M344.833 225.859H370.035M344.833 225.859V257.982M370.035 225.859H395.237M370.035 225.859V257.982M395.237 225.859H420.439M395.237 225.859V257.982M420.439 225.859V257.982M17.2023 257.982H-8M17.2023 257.982H42.4046M17.2023 257.982V290.105M-8 257.982V290.105M42.4046 257.982H67.607M42.4046 257.982V290.105M67.607 257.982H92.8093M67.607 257.982V290.105M92.8093 257.982H118.012M92.8093 257.982V290.105M118.012 257.982H143.214M118.012 257.982V290.105M143.214 257.982H168.416M143.214 257.982V290.105M168.416 257.982H193.619M168.416 257.982V290.105M193.619 257.982H218.821M193.619 257.982V290.105M218.821 257.982H244.023M218.821 257.982V290.105M244.023 257.982H269.226M244.023 257.982V290.105M269.226 257.982H294.428M269.226 257.982V290.105M294.428 257.982H319.63M294.428 257.982V290.105M319.63 257.982H344.833M319.63 257.982V290.105M344.833 257.982H370.035M344.833 257.982V290.105M370.035 257.982H395.237M370.035 257.982V290.105M395.237 257.982H420.439M395.237 257.982V290.105M420.439 257.982V290.105M17.2023 290.105H-8M17.2023 290.105H42.4046M17.2023 290.105V322.227M-8 290.105V322.227M42.4046 290.105H67.607M42.4046 290.105V322.227M67.607 290.105H92.8093M67.607 290.105V322.227M92.8093 290.105H118.012M92.8093 290.105V322.227M118.012 290.105H143.214M118.012 290.105V322.227M143.214 290.105H168.416M143.214 290.105V322.227M168.416 290.105H193.619M168.416 290.105V322.227M193.619 290.105H218.821M193.619 290.105V322.227M218.821 290.105H244.023M218.821 290.105V322.227M244.023 290.105H269.226M244.023 290.105V322.227M269.226 290.105H294.428M269.226 290.105V322.227M294.428 290.105H319.63M294.428 290.105V322.227M319.63 290.105H344.833M319.63 290.105V322.227M344.833 290.105H370.035M344.833 290.105V322.227M370.035 290.105H395.237M370.035 290.105V322.227M395.237 290.105H420.439M395.237 290.105V322.227M420.439 290.105V322.227M17.2023 322.227H-8M17.2023 322.227H42.4046M17.2023 322.227V354.35M-8 322.227V354.35M42.4046 322.227H67.607M42.4046 322.227V354.35M67.607 322.227H92.8093M67.607 322.227V354.35M92.8093 322.227H118.012M92.8093 322.227V354.35M118.012 322.227H143.214M118.012 322.227V354.35M143.214 322.227H168.416M143.214 322.227V354.35M168.416 322.227H193.619M168.416 322.227V354.35M193.619 322.227H218.821M193.619 322.227V354.35M218.821 322.227H244.023M218.821 322.227V354.35M244.023 322.227H269.226M244.023 322.227V354.35M269.226 322.227H294.428M269.226 322.227V354.35M294.428 322.227H319.63M294.428 322.227V354.35M319.63 322.227H344.833M319.63 322.227V354.35M344.833 322.227H370.035M344.833 322.227V354.35M370.035 322.227H395.237M370.035 322.227V354.35M395.237 322.227H420.439M395.237 322.227V354.35M420.439 322.227V354.35M17.2023 354.35H-8M17.2023 354.35H42.4046M17.2023 354.35V386.473M-8 354.35V386.473H17.2023M42.4046 354.35H67.607M42.4046 354.35V386.473M67.607 354.35H92.8093M67.607 354.35V386.473M92.8093 354.35H118.012M92.8093 354.35V386.473M118.012 354.35H143.214M118.012 354.35V386.473M143.214 354.35H168.416M143.214 354.35V386.473M168.416 354.35H193.619M168.416 354.35V386.473M193.619 354.35H218.821M193.619 354.35V386.473M218.821 354.35H244.023M218.821 354.35V386.473M244.023 354.35H269.226M244.023 354.35V386.473M269.226 354.35H294.428M269.226 354.35V386.473M294.428 354.35H319.63M294.428 354.35V386.473M319.63 354.35H344.833M319.63 354.35V386.473M344.833 354.35H370.035M344.833 354.35V386.473M370.035 354.35H395.237M370.035 354.35V386.473M395.237 354.35H420.439M395.237 354.35V386.473M420.439 354.35V386.473H395.237M17.2023 386.473H42.4046M42.4046 386.473H67.607M67.607 386.473H92.8093M92.8093 386.473H118.012M118.012 386.473H143.214M143.214 386.473H168.416M168.416 386.473H193.619M193.619 386.473H218.821M218.821 386.473H244.023M244.023 386.473H269.226M269.226 386.473H294.428M294.428 386.473H319.63M319.63 386.473H344.833M344.833 386.473H370.035M370.035 386.473H395.237" stroke="url(#paint3_radial_92_423)" stroke-opacity="0.08" stroke-width="0.892326"/>
<defs>
<linearGradient id="paint0_linear_92_423" x1="110.467" y1="67.6798" x2="110.467" y2="102.095" gradientUnits="userSpaceOnUse">
<stop stop-color="white" stop-opacity="0"/>
<stop offset="1" stop-color="white"/>
</linearGradient>
<linearGradient id="paint1_linear_92_423" x1="84.141" y1="269.009" x2="84.141" y2="303.425" gradientUnits="userSpaceOnUse">
<stop stop-color="white" stop-opacity="0"/>
<stop offset="1" stop-color="white"/>
</linearGradient>
<linearGradient id="paint2_linear_92_423" x1="347.401" y1="101.235" x2="347.401" y2="135.65" gradientUnits="userSpaceOnUse">
<stop stop-color="white" stop-opacity="0"/>
<stop offset="1" stop-color="white"/>
</linearGradient>
<radialGradient id="paint3_radial_92_423" cx="0" cy="0" r="1" gradientUnits="userSpaceOnUse" gradientTransform="translate(206.22 204.032) rotate(90) scale(182.029 214.543)">
<stop stop-color="white"/>
<stop offset="1" stop-color="white" stop-opacity="0"/>
</radialGradient>
</defs>
</svg>
