<svg width="58" height="34" viewBox="0 0 58 34" fill="none" xmlns="http://www.w3.org/2000/svg">
<path d="M14.808 7.14576C27.2931 10.0474 31.0966 22.058 42.9427 19.0756C54.7889 16.0932 58 8.27312 58 8.27312C58 8.27312 51.0871 15.6434 38.5005 8.71782C25.9139 1.79227 20.4667 1.97949 12.7258 3.22853C4.26759 4.59332 0 10.1282 0 10.1282C0 10.1282 7.84525 5.52756 14.808 7.14576Z" fill="url(#paint0_linear_434_1825)"/>
<path d="M20.5927 27.228C30.5159 21.0791 37.5789 6.61974 42.0639 2.6228C46.549 -1.37414 55.3909 0.386002 55.3909 0.386002C55.3909 0.386002 48.5998 2.14429 42.0639 11.5702C35.5281 20.9961 29.6755 28.6289 22.8138 32.4473C15.3163 36.6197 5.0445 31.062 5.0445 31.062C5.0445 31.062 13.2355 31.7869 20.5927 27.228Z" fill="url(#paint1_linear_434_1825)"/>
<defs>
<linearGradient id="paint0_linear_434_1825" x1="17.2093" y1="32.3007" x2="27.3504" y2="-18.9625" gradientUnits="userSpaceOnUse">
<stop stop-color="#A9A9A9"/>
<stop offset="1" stop-color="#707070"/>
</linearGradient>
<linearGradient id="paint1_linear_434_1825" x1="39.2408" y1="4.16331" x2="-18.8941" y2="58.9305" gradientUnits="userSpaceOnUse">
<stop stop-color="#E7E7E7"/>
<stop offset="1" stop-color="#BEBCBC"/>
</linearGradient>
</defs>
</svg>
