<svg width="404" height="917" viewBox="0 0 404 917" fill="none" xmlns="http://www.w3.org/2000/svg">
<g clip-path="url(#clip0_106_1029)">
<rect width="404" height="917" fill="#020308"/>
<rect width="404" height="917" fill="url(#paint0_radial_106_1029)" fill-opacity="0.1"/>
<path d="M123.968 471.68H96.9666V506.095H123.968V471.68Z" fill="url(#paint1_linear_106_1029)" fill-opacity="0.02"/>
<path d="M97.6414 673.009H70.6404V707.425H97.6414V673.009Z" fill="url(#paint2_linear_106_1029)" fill-opacity="0.02"/>
<path d="M360.901 505.235H333.9V539.65H360.901V505.235Z" fill="url(#paint3_linear_106_1029)" fill-opacity="0.02"/>
<path d="M17.2023 405H-8V437.123M17.2023 405V437.123M17.2023 405H42.4046M17.2023 437.123H-8M17.2023 437.123H42.4046M17.2023 437.123V469.245M-8 437.123V469.245M42.4046 405V437.123M42.4046 405H67.607M42.4046 437.123H67.607M42.4046 437.123V469.245M67.607 405V437.123M67.607 405H92.8093M67.607 437.123H92.8093M67.607 437.123V469.245M92.8093 405V437.123M92.8093 405H118.012M92.8093 437.123H118.012M92.8093 437.123V469.245M118.012 405V437.123M118.012 405H143.214M118.012 437.123H143.214M118.012 437.123V469.245M143.214 405V437.123M143.214 405H168.416M143.214 437.123H168.416M143.214 437.123V469.245M168.416 405V437.123M168.416 405H193.619M168.416 437.123H193.619M168.416 437.123V469.245M193.619 405V437.123M193.619 405H218.821M193.619 437.123H218.821M193.619 437.123V469.245M218.821 405V437.123M218.821 405H244.023M218.821 437.123H244.023M218.821 437.123V469.245M244.023 405V437.123M244.023 405H269.226M244.023 437.123H269.226M244.023 437.123V469.245M269.226 405V437.123M269.226 405H294.428M269.226 437.123H294.428M269.226 437.123V469.245M294.428 405V437.123M294.428 405H319.63M294.428 437.123H319.63M294.428 437.123V469.245M319.63 405V437.123M319.63 405H344.833M319.63 437.123H344.833M319.63 437.123V469.245M344.833 405V437.123M344.833 405H370.035M344.833 437.123H370.035M344.833 437.123V469.245M370.035 405V437.123M370.035 405H395.237M370.035 437.123H395.237M370.035 437.123V469.245M395.237 405V437.123M395.237 405H420.439V437.123M395.237 437.123H420.439M395.237 437.123V469.245M420.439 437.123V469.245M17.2023 469.245H-8M17.2023 469.245H42.4046M17.2023 469.245V501.368M-8 469.245V501.368M42.4046 469.245H67.607M42.4046 469.245V501.368M67.607 469.245H92.8093M67.607 469.245V501.368M92.8093 469.245H118.012M92.8093 469.245V501.368M118.012 469.245H143.214M118.012 469.245V501.368M143.214 469.245H168.416M143.214 469.245V501.368M168.416 469.245H193.619M168.416 469.245V501.368M193.619 469.245H218.821M193.619 469.245V501.368M218.821 469.245H244.023M218.821 469.245V501.368M244.023 469.245H269.226M244.023 469.245V501.368M269.226 469.245H294.428M269.226 469.245V501.368M294.428 469.245H319.63M294.428 469.245V501.368M319.63 469.245H344.833M319.63 469.245V501.368M344.833 469.245H370.035M344.833 469.245V501.368M370.035 469.245H395.237M370.035 469.245V501.368M395.237 469.245H420.439M395.237 469.245V501.368M420.439 469.245V501.368M17.2023 501.368H-8M17.2023 501.368H42.4046M17.2023 501.368V533.491M-8 501.368V533.491M42.4046 501.368H67.607M42.4046 501.368V533.491M67.607 501.368H92.8093M67.607 501.368V533.491M92.8093 501.368H118.012M92.8093 501.368V533.491M118.012 501.368H143.214M118.012 501.368V533.491M143.214 501.368H168.416M143.214 501.368V533.491M168.416 501.368H193.619M168.416 501.368V533.491M193.619 501.368H218.821M193.619 501.368V533.491M218.821 501.368H244.023M218.821 501.368V533.491M244.023 501.368H269.226M244.023 501.368V533.491M269.226 501.368H294.428M269.226 501.368V533.491M294.428 501.368H319.63M294.428 501.368V533.491M319.63 501.368H344.833M319.63 501.368V533.491M344.833 501.368H370.035M344.833 501.368V533.491M370.035 501.368H395.237M370.035 501.368V533.491M395.237 501.368H420.439M395.237 501.368V533.491M420.439 501.368V533.491M17.2023 533.491H-8M17.2023 533.491H42.4046M17.2023 533.491V565.614M-8 533.491V565.614M42.4046 533.491H67.607M42.4046 533.491V565.614M67.607 533.491H92.8093M67.607 533.491V565.614M92.8093 533.491H118.012M92.8093 533.491V565.614M118.012 533.491H143.214M118.012 533.491V565.614M143.214 533.491H168.416M143.214 533.491V565.614M168.416 533.491H193.619M168.416 533.491V565.614M193.619 533.491H218.821M193.619 533.491V565.614M218.821 533.491H244.023M218.821 533.491V565.614M244.023 533.491H269.226M244.023 533.491V565.614M269.226 533.491H294.428M269.226 533.491V565.614M294.428 533.491H319.63M294.428 533.491V565.614M319.63 533.491H344.833M319.63 533.491V565.614M344.833 533.491H370.035M344.833 533.491V565.614M370.035 533.491H395.237M370.035 533.491V565.614M395.237 533.491H420.439M395.237 533.491V565.614M420.439 533.491V565.614M17.2023 565.614H-8M17.2023 565.614H42.4046M17.2023 565.614V597.736M-8 565.614V597.736M42.4046 565.614H67.607M42.4046 565.614V597.736M67.607 565.614H92.8093M67.607 565.614V597.736M92.8093 565.614H118.012M92.8093 565.614V597.736M118.012 565.614H143.214M118.012 565.614V597.736M143.214 565.614H168.416M143.214 565.614V597.736M168.416 565.614H193.619M168.416 565.614V597.736M193.619 565.614H218.821M193.619 565.614V597.736M218.821 565.614H244.023M218.821 565.614V597.736M244.023 565.614H269.226M244.023 565.614V597.736M269.226 565.614H294.428M269.226 565.614V597.736M294.428 565.614H319.63M294.428 565.614V597.736M319.63 565.614H344.833M319.63 565.614V597.736M344.833 565.614H370.035M344.833 565.614V597.736M370.035 565.614H395.237M370.035 565.614V597.736M395.237 565.614H420.439M395.237 565.614V597.736M420.439 565.614V597.736M17.2023 597.736H-8M17.2023 597.736H42.4046M17.2023 597.736V629.859M-8 597.736V629.859M42.4046 597.736H67.607M42.4046 597.736V629.859M67.607 597.736H92.8093M67.607 597.736V629.859M92.8093 597.736H118.012M92.8093 597.736V629.859M118.012 597.736H143.214M118.012 597.736V629.859M143.214 597.736H168.416M143.214 597.736V629.859M168.416 597.736H193.619M168.416 597.736V629.859M193.619 597.736H218.821M193.619 597.736V629.859M218.821 597.736H244.023M218.821 597.736V629.859M244.023 597.736H269.226M244.023 597.736V629.859M269.226 597.736H294.428M269.226 597.736V629.859M294.428 597.736H319.63M294.428 597.736V629.859M319.63 597.736H344.833M319.63 597.736V629.859M344.833 597.736H370.035M344.833 597.736V629.859M370.035 597.736H395.237M370.035 597.736V629.859M395.237 597.736H420.439M395.237 597.736V629.859M420.439 597.736V629.859M17.2023 629.859H-8M17.2023 629.859H42.4046M17.2023 629.859V661.982M-8 629.859V661.982M42.4046 629.859H67.607M42.4046 629.859V661.982M67.607 629.859H92.8093M67.607 629.859V661.982M92.8093 629.859H118.012M92.8093 629.859V661.982M118.012 629.859H143.214M118.012 629.859V661.982M143.214 629.859H168.416M143.214 629.859V661.982M168.416 629.859H193.619M168.416 629.859V661.982M193.619 629.859H218.821M193.619 629.859V661.982M218.821 629.859H244.023M218.821 629.859V661.982M244.023 629.859H269.226M244.023 629.859V661.982M269.226 629.859H294.428M269.226 629.859V661.982M294.428 629.859H319.63M294.428 629.859V661.982M319.63 629.859H344.833M319.63 629.859V661.982M344.833 629.859H370.035M344.833 629.859V661.982M370.035 629.859H395.237M370.035 629.859V661.982M395.237 629.859H420.439M395.237 629.859V661.982M420.439 629.859V661.982M17.2023 661.982H-8M17.2023 661.982H42.4046M17.2023 661.982V694.105M-8 661.982V694.105M42.4046 661.982H67.607M42.4046 661.982V694.105M67.607 661.982H92.8093M67.607 661.982V694.105M92.8093 661.982H118.012M92.8093 661.982V694.105M118.012 661.982H143.214M118.012 661.982V694.105M143.214 661.982H168.416M143.214 661.982V694.105M168.416 661.982H193.619M168.416 661.982V694.105M193.619 661.982H218.821M193.619 661.982V694.105M218.821 661.982H244.023M218.821 661.982V694.105M244.023 661.982H269.226M244.023 661.982V694.105M269.226 661.982H294.428M269.226 661.982V694.105M294.428 661.982H319.63M294.428 661.982V694.105M319.63 661.982H344.833M319.63 661.982V694.105M344.833 661.982H370.035M344.833 661.982V694.105M370.035 661.982H395.237M370.035 661.982V694.105M395.237 661.982H420.439M395.237 661.982V694.105M420.439 661.982V694.105M17.2023 694.105H-8M17.2023 694.105H42.4046M17.2023 694.105V726.227M-8 694.105V726.227M42.4046 694.105H67.607M42.4046 694.105V726.227M67.607 694.105H92.8093M67.607 694.105V726.227M92.8093 694.105H118.012M92.8093 694.105V726.227M118.012 694.105H143.214M118.012 694.105V726.227M143.214 694.105H168.416M143.214 694.105V726.227M168.416 694.105H193.619M168.416 694.105V726.227M193.619 694.105H218.821M193.619 694.105V726.227M218.821 694.105H244.023M218.821 694.105V726.227M244.023 694.105H269.226M244.023 694.105V726.227M269.226 694.105H294.428M269.226 694.105V726.227M294.428 694.105H319.63M294.428 694.105V726.227M319.63 694.105H344.833M319.63 694.105V726.227M344.833 694.105H370.035M344.833 694.105V726.227M370.035 694.105H395.237M370.035 694.105V726.227M395.237 694.105H420.439M395.237 694.105V726.227M420.439 694.105V726.227M17.2023 726.227H-8M17.2023 726.227H42.4046M17.2023 726.227V758.35M-8 726.227V758.35M42.4046 726.227H67.607M42.4046 726.227V758.35M67.607 726.227H92.8093M67.607 726.227V758.35M92.8093 726.227H118.012M92.8093 726.227V758.35M118.012 726.227H143.214M118.012 726.227V758.35M143.214 726.227H168.416M143.214 726.227V758.35M168.416 726.227H193.619M168.416 726.227V758.35M193.619 726.227H218.821M193.619 726.227V758.35M218.821 726.227H244.023M218.821 726.227V758.35M244.023 726.227H269.226M244.023 726.227V758.35M269.226 726.227H294.428M269.226 726.227V758.35M294.428 726.227H319.63M294.428 726.227V758.35M319.63 726.227H344.833M319.63 726.227V758.35M344.833 726.227H370.035M344.833 726.227V758.35M370.035 726.227H395.237M370.035 726.227V758.35M395.237 726.227H420.439M395.237 726.227V758.35M420.439 726.227V758.35M17.2023 758.35H-8M17.2023 758.35H42.4046M17.2023 758.35V790.473M-8 758.35V790.473H17.2023M42.4046 758.35H67.607M42.4046 758.35V790.473M67.607 758.35H92.8093M67.607 758.35V790.473M92.8093 758.35H118.012M92.8093 758.35V790.473M118.012 758.35H143.214M118.012 758.35V790.473M143.214 758.35H168.416M143.214 758.35V790.473M168.416 758.35H193.619M168.416 758.35V790.473M193.619 758.35H218.821M193.619 758.35V790.473M218.821 758.35H244.023M218.821 758.35V790.473M244.023 758.35H269.226M244.023 758.35V790.473M269.226 758.35H294.428M269.226 758.35V790.473M294.428 758.35H319.63M294.428 758.35V790.473M319.63 758.35H344.833M319.63 758.35V790.473M344.833 758.35H370.035M344.833 758.35V790.473M370.035 758.35H395.237M370.035 758.35V790.473M395.237 758.35H420.439M395.237 758.35V790.473M420.439 758.35V790.473H395.237M17.2023 790.473H42.4046M42.4046 790.473H67.607M67.607 790.473H92.8093M92.8093 790.473H118.012M118.012 790.473H143.214M143.214 790.473H168.416M168.416 790.473H193.619M193.619 790.473H218.821M218.821 790.473H244.023M244.023 790.473H269.226M269.226 790.473H294.428M294.428 790.473H319.63M319.63 790.473H344.833M344.833 790.473H370.035M370.035 790.473H395.237" stroke="url(#paint4_radial_106_1029)" stroke-opacity="0.08" stroke-width="0.892326"/>
</g>
<defs>
<radialGradient id="paint0_radial_106_1029" cx="0" cy="0" r="1" gradientUnits="userSpaceOnUse" gradientTransform="translate(202 -130.5) rotate(90) scale(509 551.793)">
<stop offset="0.110577" stop-color="#001EFF"/>
<stop offset="1" stop-color="white" stop-opacity="0"/>
</radialGradient>
<linearGradient id="paint1_linear_106_1029" x1="110.467" y1="471.68" x2="110.467" y2="506.095" gradientUnits="userSpaceOnUse">
<stop stop-color="white" stop-opacity="0"/>
<stop offset="1" stop-color="white"/>
</linearGradient>
<linearGradient id="paint2_linear_106_1029" x1="84.1409" y1="673.009" x2="84.1409" y2="707.425" gradientUnits="userSpaceOnUse">
<stop stop-color="white" stop-opacity="0"/>
<stop offset="1" stop-color="white"/>
</linearGradient>
<linearGradient id="paint3_linear_106_1029" x1="347.401" y1="505.235" x2="347.401" y2="539.65" gradientUnits="userSpaceOnUse">
<stop stop-color="white" stop-opacity="0"/>
<stop offset="1" stop-color="white"/>
</linearGradient>
<radialGradient id="paint4_radial_106_1029" cx="0" cy="0" r="1" gradientUnits="userSpaceOnUse" gradientTransform="translate(206.22 608.032) rotate(90) scale(182.029 214.543)">
<stop stop-color="white"/>
<stop offset="1" stop-color="white" stop-opacity="0"/>
</radialGradient>
<clipPath id="clip0_106_1029">
<rect width="404" height="917" fill="white"/>
</clipPath>
</defs>
</svg>
